<svg width="1440" height="229" viewBox="0 0 1440 229" fill="none" xmlns="http://www.w3.org/2000/svg">
<path d="M0 51.4L24 61.2975C48 70.825 96 91.175 144 85.9025C192 81 240 51.4 288 36.6C336 21.8 384 21.8 432 41.5025C480 61.575 528 100.425 576 95.8C624 91.175 672 41.225 720 41.5025C768 41.225 816 91.175 864 110.6C912 130.025 960 120.775 1008 105.697C1056 91.175 1104 70.825 1152 46.4975C1200 21.8 1248 -7.80001 1296 2.09749C1344 11.625 1392 61.575 1416 85.9025L1440 110.6V229H1416C1392 229 1344 229 1296 229C1248 229 1200 229 1152 229C1104 229 1056 229 1008 229C960 229 912 229 864 229C816 229 768 229 720 229C672 229 624 229 576 229C528 229 480 229 432 229C384 229 336 229 288 229C240 229 192 229 144 229C96 229 48 229 24 229H0V51.4Z" fill="#D6EAF8"/>
</svg>
